<?xml version="1.0" encoding="utf-8"?>
<!-- Generator: Adobe Illustrator 19.0.0, SVG Export Plug-In . SVG Version: 6.00 Build 0)  -->
<svg version="1.1" id="Layer_3" xmlns="http://www.w3.org/2000/svg" xmlns:xlink="http://www.w3.org/1999/xlink" x="0px" y="0px"
	 width="399.98px" height="400px" viewBox="0 0 399.98 400" style="enable-background:new 0 0 399.98 400;" xml:space="preserve">
<style type="text/css">
	.st0{display:none;}
	.st1{opacity:0.2;}
	.st2{opacity:0.5;fill:#FFFFFF;}
	.st3{opacity:0.2;fill:#FFFFFF;}
	.st4{fill:#FFFFFF;}
</style>
<g id="GUÍAS" class="st0">
</g>
<g class="st1">
	<rect x="0" y="0.5" class="st2" width="1" height="399.5"/>
	<rect x="19.55" y="0" class="st3" width="1" height="400"/>
	<rect x="39.6" y="0" class="st3" width="1" height="400"/>
	<rect x="59.65" y="0" class="st3" width="1" height="400"/>
	<rect x="79.7" y="0" class="st3" width="1" height="400"/>
	<rect x="99.75" y="0" class="st2" width="1" height="400"/>
	<rect x="119.8" y="0" class="st3" width="1" height="400"/>
	<rect x="139.85" y="0" class="st3" width="1" height="400"/>
	<rect x="159.9" y="0" class="st3" width="1" height="400"/>
	<rect x="179.95" y="0" class="st3" width="1" height="400"/>
	<rect x="200" y="0" class="st2" width="1" height="400"/>
	<rect x="220.05" y="0" class="st3" width="1" height="399.98"/>
	<rect x="240.1" y="0" class="st3" width="1" height="399.98"/>
	<rect x="260.15" y="0" class="st3" width="1" height="399.98"/>
	<rect x="280.2" y="0" class="st3" width="1" height="399.98"/>
	<rect x="300.25" y="0" class="st2" width="1" height="399.98"/>
	<rect x="320.3" y="0" class="st3" width="1" height="399.98"/>
	<rect x="340.35" y="0" class="st3" width="1" height="399.98"/>
	<rect x="360.4" y="0" class="st3" width="1" height="399.98"/>
	<rect x="380.45" y="0" class="st3" width="1" height="399.98"/>
	<rect x="0.5" y="0" class="st2" width="399.48" height="1"/>
	<rect x="0" y="19.55" class="st3" width="399.98" height="1"/>
	<rect x="0" y="39.6" class="st3" width="399.98" height="1"/>
	<rect x="0" y="59.65" class="st3" width="399.98" height="1"/>
	<rect x="0" y="79.7" class="st3" width="399.98" height="1"/>
	<rect x="0" y="99.75" class="st2" width="399.98" height="1"/>
	<rect x="0" y="119.8" class="st3" width="399.98" height="1"/>
	<rect x="0" y="139.85" class="st3" width="399.98" height="1"/>
	<rect x="0" y="159.9" class="st3" width="399.98" height="1"/>
	<rect x="0" y="179.95" class="st3" width="399.98" height="1"/>
	<rect x="0" y="200" class="st2" width="399.98" height="1"/>
	<rect x="0" y="220.05" class="st3" width="399.98" height="1"/>
	<rect x="0" y="240.1" class="st3" width="399.98" height="1"/>
	<rect x="0" y="260.15" class="st3" width="399.98" height="1"/>
	<rect x="0" y="280.2" class="st3" width="399.98" height="1"/>
	<rect x="0" y="300.25" class="st2" width="399.98" height="1"/>
	<rect x="0" y="320.3" class="st3" width="399.98" height="1"/>
	<rect x="0" y="340.35" class="st3" width="399.98" height="1"/>
	<rect x="0" y="360.4" class="st3" width="399.98" height="1"/>
	<rect x="0" y="380.45" class="st3" width="399.98" height="1"/>
	<g>
		<rect x="0" y="0" class="st4" width="1" height="4"/>
		<rect x="0.02" y="0" class="st4" width="3.98" height="1"/>
	</g>
	<g>
		<rect x="397" class="st4" width="2.98" height="1"/>
	</g>
	<g>
		<rect x="0" y="96.75" class="st4" width="1" height="7"/>
		<rect y="99.75" class="st4" width="4" height="1"/>
	</g>
	<g>
		<rect x="397" y="99.75" class="st4" width="2.98" height="1"/>
	</g>
	<g>
		<rect x="0" y="197" class="st4" width="1" height="7"/>
		<rect x="0" y="200" class="st4" width="4" height="1"/>
	</g>
	<g>
		<rect x="397" y="200" class="st4" width="2.98" height="1"/>
	</g>
	<g>
		<rect x="0" y="297.25" class="st4" width="1" height="7"/>
		<rect x="0.01" y="300.25" class="st4" width="3.99" height="1"/>
	</g>
	<g>
		<rect x="397" y="300.25" class="st4" width="2.98" height="1"/>
	</g>
	<g>
		<rect x="0" y="397" class="st4" width="1" height="3"/>
	</g>
	<g>
		<rect x="99.75" y="0" class="st4" width="1" height="4"/>
		<rect x="96.75" y="0" class="st4" width="7" height="1"/>
	</g>
	<g>
		<rect x="99.75" y="96.75" class="st4" width="1" height="7"/>
		<rect x="96.75" y="99.75" class="st4" width="7" height="1"/>
	</g>
	<g>
		<rect x="99.75" y="197" class="st4" width="1" height="7"/>
		<rect x="96.75" y="200" class="st4" width="7" height="1"/>
	</g>
	<g>
		<rect x="99.75" y="297.25" class="st4" width="1" height="7"/>
		<rect x="96.75" y="300.25" class="st4" width="7" height="1"/>
	</g>
	<g>
		<rect x="99.75" y="397" class="st4" width="1" height="3"/>
	</g>
	<g>
		<rect x="200" y="0" class="st4" width="1" height="4"/>
		<rect x="197" y="0" class="st4" width="7" height="1"/>
	</g>
	<g>
		<rect x="200" y="96.75" class="st4" width="1" height="7"/>
		<rect x="197" y="99.75" class="st4" width="7" height="1"/>
	</g>
	<g>
		<rect x="200" y="197" class="st4" width="1" height="7"/>
		<rect x="197" y="200" class="st4" width="7" height="1"/>
	</g>
	<g>
		<rect x="200" y="297.25" class="st4" width="1" height="7"/>
		<rect x="197" y="300.25" class="st4" width="7" height="1"/>
	</g>
	<g>
		<rect x="200" y="397" class="st4" width="1" height="2.96"/>
	</g>
	<g>
		<rect x="300.25" y="0" class="st4" width="1" height="4"/>
		<rect x="297.25" y="0" class="st4" width="7" height="1"/>
	</g>
	<g>
		<rect x="300.25" y="96.75" class="st4" width="1" height="7"/>
		<rect x="297.25" y="99.75" class="st4" width="7" height="1"/>
	</g>
	<g>
		<rect x="300.25" y="197" class="st4" width="1" height="7"/>
		<rect x="297.25" y="200" class="st4" width="7" height="1"/>
	</g>
	<g>
		<rect x="300.25" y="297.25" class="st4" width="1" height="7"/>
		<rect x="297.25" y="300.25" class="st4" width="7" height="1"/>
	</g>
	<g>
		<rect x="300.25" y="397" class="st4" width="1" height="3"/>
	</g>
	<rect x="50" y="50" class="st4" width="1" height="1"/>
	<rect x="150" y="50" class="st4" width="1" height="1"/>
	<rect x="250" y="50" class="st4" width="1" height="1"/>
	<rect x="350" y="50" class="st4" width="1" height="1"/>
	<rect x="50" y="150" class="st4" width="1" height="1"/>
	<rect x="150" y="150" class="st4" width="1" height="1"/>
	<rect x="250" y="150" class="st4" width="1" height="1"/>
	<rect x="350" y="150" class="st4" width="1" height="1"/>
	<rect x="50" y="250" class="st4" width="1" height="1"/>
	<rect x="150" y="250" class="st4" width="1" height="1"/>
	<rect x="250" y="250" class="st4" width="1" height="1"/>
	<rect x="350" y="250" class="st4" width="1" height="1"/>
	<rect x="50" y="350" class="st4" width="1" height="1"/>
	<rect x="150" y="350" class="st4" width="1" height="1"/>
	<rect x="250" y="350" class="st4" width="1" height="1"/>
	<rect x="350" y="350" class="st4" width="1" height="1"/>
</g>
</svg>
